
<svg width="236" height="37" viewBox="0 0 236 37" fill="none" xmlns="http://www.w3.org/2000/svg">
<path d="M126.352 36.5165C124.845 36.5165 123.449 36.2694 122.165 35.7753C120.88 35.2813 119.768 34.5895 118.83 33.7002C117.916 32.8355 117.249 31.8102 116.829 30.6244L121.35 28.9198C121.646 29.8586 122.227 30.6121 123.091 31.1803C123.981 31.7732 125.068 32.0696 126.352 32.0696C127.34 32.0696 128.205 31.8844 128.946 31.5138C129.712 31.1432 130.305 30.5997 130.725 29.8833C131.145 29.1916 131.355 28.3516 131.355 27.3634V22.7683L132.281 23.88C131.59 25.0906 130.663 26.0046 129.502 26.6223C128.341 27.2399 127.019 27.5487 125.537 27.5487C123.659 27.5487 121.979 27.1164 120.497 26.2517C119.015 25.387 117.854 24.2012 117.014 22.6942C116.174 21.1872 115.754 19.495 115.754 17.6174C115.754 15.7152 116.174 14.0229 117.014 12.5406C117.854 11.0583 119.003 9.89721 120.46 9.05725C121.918 8.19259 123.573 7.76025 125.426 7.76025C126.933 7.76025 128.254 8.08141 129.391 8.72374C130.552 9.34135 131.515 10.2431 132.281 11.4289L131.614 12.6518V8.20494H136.209V27.3634C136.209 29.1174 135.777 30.6862 134.912 32.0696C134.072 33.4531 132.911 34.5401 131.429 35.3307C129.971 36.1212 128.279 36.5165 126.352 36.5165ZM126.13 23.0648C127.167 23.0648 128.069 22.8425 128.835 22.3978C129.626 21.9284 130.243 21.2861 130.688 20.4708C131.133 19.6556 131.355 18.7168 131.355 17.6545C131.355 16.6169 131.12 15.6905 130.651 14.8752C130.206 14.0352 129.589 13.3806 128.798 12.9112C128.032 12.4418 127.143 12.2071 126.13 12.2071C125.117 12.2071 124.203 12.4418 123.388 12.9112C122.572 13.3806 121.93 14.0352 121.461 14.8752C121.016 15.6905 120.794 16.6169 120.794 17.6545C120.794 18.6921 121.016 19.6185 121.461 20.4337C121.93 21.249 122.56 21.8913 123.351 22.3607C124.166 22.8301 125.092 23.0648 126.13 23.0648Z" fill="black"/>
<path d="M94.5801 28.3639V8.20494H99.1381V12.17L98.7675 11.466C99.2369 10.2554 100.003 9.34135 101.065 8.72374C102.152 8.08141 103.412 7.76025 104.845 7.76025C106.327 7.76025 107.636 8.08141 108.773 8.72374C109.934 9.36606 110.836 10.2678 111.478 11.4289C112.12 12.5653 112.442 13.887 112.442 15.394V28.3639H107.587V16.5428C107.587 15.6534 107.414 14.8876 107.068 14.2452C106.722 13.6029 106.241 13.1088 105.623 12.7629C105.03 12.3924 104.326 12.2071 103.511 12.2071C102.72 12.2071 102.016 12.3924 101.399 12.7629C100.781 13.1088 100.299 13.6029 99.9533 14.2452C99.6075 14.8876 99.4345 15.6534 99.4345 16.5428V28.3639H94.5801Z" fill="black"/>
<path d="M86.0879 28.3641V8.20505H90.9424V28.3641H86.0879ZM86.0879 5.94457V0.756592H90.9424V5.94457H86.0879Z" fill="black"/>
<path d="M64.584 28.3639V8.20494H69.142V12.17L68.7714 11.466C69.2408 10.2554 70.0067 9.34135 71.069 8.72374C72.156 8.08141 73.4159 7.76025 74.8488 7.76025C76.331 7.76025 77.6404 8.08141 78.7768 8.72374C79.9379 9.36606 80.8397 10.2678 81.482 11.4289C82.1243 12.5653 82.4455 13.887 82.4455 15.394V28.3639H77.591V16.5428C77.591 15.6534 77.4181 14.8876 77.0722 14.2452C76.7263 13.6029 76.2446 13.1088 75.627 12.7629C75.0341 12.3924 74.33 12.2071 73.5147 12.2071C72.7242 12.2071 72.0201 12.3924 71.4025 12.7629C70.7849 13.1088 70.3031 13.6029 69.9572 14.2452C69.6114 14.8876 69.4385 15.6534 69.4385 16.5428V28.3639H64.584Z" fill="black"/>
<path d="M50.1895 28.3639V8.20489H54.7475V12.6888L54.3769 12.0218C54.8463 10.5148 55.5751 9.46482 56.5633 8.87191C57.5761 8.279 58.7867 7.98254 60.1948 7.98254H61.3807V12.2812H59.639C58.2555 12.2812 57.1438 12.7135 56.3039 13.5782C55.4639 14.4181 55.0439 15.6039 55.0439 17.1356V28.3639H50.1895Z" fill="black"/>
<path d="M11.0723 28.8087C9.61476 28.8087 8.26835 28.5246 7.03312 27.9564C5.82259 27.3635 4.85911 26.5235 4.14267 25.4365L4.62442 24.473V28.364H0.0664062V0.31189H4.92087V12.2072L4.17973 11.2066C4.87146 10.1196 5.81024 9.27968 6.99606 8.68677C8.18189 8.06915 9.553 7.76034 11.1094 7.76034C13.0116 7.76034 14.7286 8.22973 16.2603 9.16851C17.792 10.1073 19.0025 11.3672 19.8919 12.9483C20.806 14.5294 21.263 16.3082 21.263 18.2845C21.263 20.2362 20.8183 22.0149 19.929 23.6207C19.0396 25.2265 17.8291 26.4988 16.2974 27.4376C14.7657 28.3517 13.024 28.8087 11.0723 28.8087ZM10.5165 24.3619C11.6282 24.3619 12.6164 24.1025 13.481 23.5837C14.3457 23.0649 15.0127 22.3484 15.4821 21.4344C15.9762 20.5203 16.2233 19.4704 16.2233 18.2845C16.2233 17.0987 15.9762 16.0611 15.4821 15.1717C15.0127 14.2577 14.3457 13.5412 13.481 13.0224C12.6164 12.4789 11.6282 12.2072 10.5165 12.2072C9.45418 12.2072 8.4907 12.4666 7.62603 12.9854C6.78607 13.5042 6.11905 14.233 5.62495 15.1717C5.15557 16.0858 4.92087 17.1234 4.92087 18.2845C4.92087 19.4704 5.15557 20.5203 5.62495 21.4344C6.11905 22.3484 6.78607 23.0649 7.62603 23.5837C8.4907 24.1025 9.45418 24.3619 10.5165 24.3619Z" fill="black"/>
<rect x="24.6875" y="8.02014" width="5.52077" height="15.1254" fill="black"/>
<rect x="30.209" y="22.843" width="5.52077" height="5.52077" fill="black"/>
<rect x="35.7285" y="8.02014" width="5.52077" height="15.1254" fill="black"/>
<rect x="41.25" y="22.843" width="5.52077" height="5.52077" fill="black"/>
<path d="M219.759 28.803C217.61 28.803 215.732 28.2966 214.126 27.2837C212.545 26.2461 211.458 24.8503 210.865 23.0962L214.497 21.3546C215.016 22.491 215.732 23.3803 216.646 24.0227C217.585 24.665 218.622 24.9861 219.759 24.9861C220.648 24.9861 221.352 24.7885 221.871 24.3932C222.39 23.998 222.649 23.4792 222.649 22.8368C222.649 22.4416 222.538 22.1204 222.316 21.8734C222.118 21.6016 221.834 21.3793 221.464 21.2063C221.118 21.0087 220.735 20.8481 220.315 20.7246L217.017 19.7982C215.312 19.3041 214.015 18.5506 213.126 17.5377C212.261 16.5248 211.829 15.3266 211.829 13.9432C211.829 12.7079 212.138 11.6333 212.755 10.7192C213.397 9.78042 214.274 9.05164 215.386 8.53284C216.523 8.01404 217.82 7.75464 219.277 7.75464C221.179 7.75464 222.859 8.21168 224.317 9.12575C225.775 10.0398 226.812 11.3245 227.43 12.9797L223.724 14.7214C223.378 13.8073 222.798 13.0785 221.982 12.535C221.167 11.9915 220.253 11.7197 219.24 11.7197C218.425 11.7197 217.783 11.905 217.313 12.2756C216.844 12.6462 216.609 13.1279 216.609 13.7208C216.609 14.0914 216.708 14.4125 216.906 14.6843C217.103 14.956 217.375 15.1784 217.721 15.3513C218.091 15.5243 218.511 15.6848 218.981 15.8331L222.205 16.7965C223.86 17.2906 225.132 18.0318 226.022 19.02C226.936 20.0082 227.393 21.2187 227.393 22.6516C227.393 23.8621 227.071 24.9367 226.429 25.8755C225.787 26.7896 224.897 27.506 223.761 28.0248C222.625 28.5436 221.291 28.803 219.759 28.803Z" fill="black"/>
<path d="M197.989 28.803C196.012 28.803 194.209 28.346 192.579 27.4319C190.973 26.5178 189.688 25.2702 188.725 23.6891C187.786 22.108 187.316 20.3046 187.316 18.2788C187.316 16.253 187.786 14.4496 188.725 12.8685C189.688 11.2874 190.973 10.0398 192.579 9.12575C194.184 8.21168 195.988 7.75464 197.989 7.75464C199.965 7.75464 201.756 8.21168 203.362 9.12575C204.968 10.0398 206.24 11.2874 207.179 12.8685C208.142 14.4249 208.624 16.2283 208.624 18.2788C208.624 20.3046 208.142 22.108 207.179 23.6891C206.215 25.2702 204.931 26.5178 203.325 27.4319C201.719 28.346 199.94 28.803 197.989 28.803ZM197.989 24.3562C199.076 24.3562 200.027 24.0968 200.842 23.578C201.682 23.0592 202.337 22.3427 202.806 21.4287C203.3 20.4899 203.547 19.4399 203.547 18.2788C203.547 17.093 203.3 16.0554 202.806 15.166C202.337 14.252 201.682 13.5355 200.842 13.0167C200.027 12.4732 199.076 12.2015 197.989 12.2015C196.877 12.2015 195.901 12.4732 195.061 13.0167C194.221 13.5355 193.554 14.252 193.06 15.166C192.591 16.0554 192.356 17.093 192.356 18.2788C192.356 19.4399 192.591 20.4899 193.06 21.4287C193.554 22.3427 194.221 23.0592 195.061 23.578C195.901 24.0968 196.877 24.3562 197.989 24.3562Z" fill="black"/>
<path d="M174.643 28.3582V8.19915H179.201V12.683L178.83 12.016C179.299 10.509 180.028 9.45909 181.016 8.86617C182.029 8.27326 183.24 7.97681 184.648 7.97681H185.834V12.2754H184.092C182.709 12.2754 181.597 12.7078 180.757 13.5724C179.917 14.4124 179.497 15.5982 179.497 17.1299V28.3582H174.643Z" fill="black"/>
<path d="M161.033 28.8031C159.576 28.8031 158.229 28.519 156.994 27.9508C155.784 27.3579 154.82 26.5179 154.104 25.4309L154.585 24.4674V28.3584H150.027V0.306274H154.882V12.2016L154.141 11.201C154.832 10.114 155.771 9.27407 156.957 8.68115C158.143 8.06354 159.514 7.75473 161.07 7.75473C162.973 7.75473 164.69 8.22412 166.221 9.1629C167.753 10.1017 168.963 11.3616 169.853 12.9427C170.767 14.5238 171.224 16.3025 171.224 18.2789C171.224 20.2306 170.779 22.0093 169.89 23.6151C169.001 25.2209 167.79 26.4932 166.258 27.432C164.727 28.3461 162.985 28.8031 161.033 28.8031ZM160.477 24.3563C161.589 24.3563 162.577 24.0969 163.442 23.5781C164.307 23.0593 164.974 22.3428 165.443 21.4288C165.937 20.5147 166.184 19.4647 166.184 18.2789C166.184 17.0931 165.937 16.0555 165.443 15.1661C164.974 14.2521 164.307 13.5356 163.442 13.0168C162.577 12.4733 161.589 12.2016 160.477 12.2016C159.415 12.2016 158.452 12.461 157.587 12.9798C156.747 13.4986 156.08 14.2273 155.586 15.1661C155.117 16.0802 154.882 17.1178 154.882 18.2789C154.882 19.4647 155.117 20.5147 155.586 21.4288C156.08 22.3428 156.747 23.0593 157.587 23.5781C158.452 24.0969 159.415 24.3563 160.477 24.3563Z" fill="black"/>
<path d="M230.625 23.2981H235.766V28.4387H230.625V23.2981Z" fill="black"/>
</svg>